<svg xmlns="http://www.w3.org/2000/svg" viewBox="0 0 35.717 53">
  <defs>
    <style>
      .cls-1 {
        fill: none;
      }

      .cls-2, .cls-4 {
        fill: #454f5b;
      }

      .cls-3, .cls-4 {
        stroke: none;
      }
    </style>
  </defs>
  <g id="Group_4335" data-name="Group 4335" transform="translate(-283 -1184)">
    <g id="Path_178" data-name="Path 178" class="cls-1" transform="translate(283 1184)">
      <path class="cls-3" d="M17.859,0A17.859,17.859,0,0,1,35.717,17.859V35.141A17.859,17.859,0,0,1,0,35.141V17.859A17.859,17.859,0,0,1,17.859,0Z"/>
      <path class="cls-4" d="M 17.85869598388672 3 C 13.88979530334473 3 10.15844535827637 4.545570373535156 7.352006912231445 7.352008819580078 C 4.545566558837891 10.15845108032227 2.999996185302734 13.88980102539063 2.999996185302734 17.85869979858398 L 2.999996185302734 35.14130020141602 C 2.999996185302734 39.11019897460938 4.545566558837891 42.84154891967773 7.352006912231445 45.64799118041992 C 10.15844535827637 48.45442962646484 13.88979530334473 50 17.85869598388672 50 C 21.82759475708008 50 25.55894470214844 48.45442962646484 28.36538696289063 45.64799118041992 C 31.17181587219238 42.84154891967773 32.7173957824707 39.11019897460938 32.7173957824707 35.14130020141602 L 32.7173957824707 17.85869979858398 C 32.7173957824707 13.88980102539063 31.17181587219238 10.15845108032227 28.36538696289063 7.352008819580078 C 25.55894470214844 4.545570373535156 21.82759475708008 3 17.85869598388672 3 M 17.85869598388672 0 C 27.72177505493164 0 35.7173957824707 7.995609283447266 35.7173957824707 17.85869979858398 L 35.7173957824707 35.14130020141602 C 35.7173957824707 45.00439071655273 27.72177505493164 53 17.85869598388672 53 C 7.99560546875 53 -3.814697265625e-06 45.00439071655273 -3.814697265625e-06 35.14130020141602 L -3.814697265625e-06 17.85869979858398 C -3.814697265625e-06 7.995609283447266 7.99560546875 0 17.85869598388672 0 Z"/>
    </g>
    <rect id="Rectangle_3333" data-name="Rectangle 3333" class="cls-2" width="4" height="12.098" rx="2" transform="translate(299 1193.793)"/>
  </g>
</svg>
