<svg xmlns="http://www.w3.org/2000/svg" xmlns:xlink="http://www.w3.org/1999/xlink" viewBox="0 0 32 47" style="enable-background:new 0 0 32 47;" xml:space="preserve">
	<path fill="#454F5B" d="M16,3c7.2,0,13,5.8,13,13v15c0,7.2-5.8,13-13,13C8.8,44,3,38.2,3,31V16C3,8.8,8.8,3,16,3 M16,0L16,0 C7.2,0,0,7.2,0,16v15c0,8.8,7.2,16,16,16h0c8.8,0,16-7.2,16-16V16C32,7.2,24.8,0,16,0L16,0z"/>
	<path fill="#454F5B" d="M16,20L16,20c-1.1,0-2-0.9-2-2v-7.8c0-1.1,0.9-2,2-2h0c1.1,0,2,0.9,2,2V18C18,19.1,17.1,20,16,20z"/>
</svg>
