<?xml version="1.0" encoding="utf-8"?>
<!-- Generator: Adobe Illustrator 22.0.1, SVG Export Plug-In . SVG Version: 6.00 Build 0)  -->
<svg version="1.1" id="Layer_1" xmlns="http://www.w3.org/2000/svg" xmlns:xlink="http://www.w3.org/1999/xlink" x="0px" y="0px"
	 viewBox="0 0 113.1 114.1" style="enable-background:new 0 0 113.1 114.1;" xml:space="preserve">
<style type="text/css">
	.st0{fill:url(#SVGID_1_);}
	.st1{fill:url(#SVGID_2_);}
	.st2{fill:url(#SVGID_3_);}
	.st3{fill:url(#SVGID_4_);}
	.st4{fill:url(#SVGID_5_);}
	.st5{fill:url(#SVGID_6_);}
	.st6{fill:url(#SVGID_7_);}
	.st7{fill:url(#SVGID_8_);}
	.st8{fill:url(#SVGID_9_);}
	.st9{fill:url(#SVGID_10_);}
	.st10{fill:url(#SVGID_11_);}
	.st11{fill:url(#SVGID_12_);}
	.st12{fill:url(#SVGID_13_);}
</style>
<g>
	<g>
		<linearGradient id="SVGID_1_" gradientUnits="userSpaceOnUse" x1="4.1799" y1="8.3731" x2="107.5257" y2="8.3731">
			<stop  offset="0" style="stop-color:#F05B85"/>
			<stop  offset="1" style="stop-color:#F68953"/>
		</linearGradient>
		<path class="st0" d="M22.9,1.4c3.1,0,6.2,0.1,9.1,0.7l1.1,0.2c0.4,0.1,0.7,0.2,1.1,0.3l2.2,0.6C38,3.6,39.4,4,40.8,4.6
			c2.8,1.1,5.5,2.5,8,4.1c0.6,0.4,1.2,0.8,1.9,1.2c0.6,0.4,1.2,0.9,1.8,1.3c1.2,0.9,2.3,1.9,3.4,2.9h-0.8c1.1-1.1,2.2-2,3.4-2.9
			c0.6-0.5,1.2-0.9,1.8-1.3c0.6-0.4,1.2-0.8,1.9-1.2c2.5-1.6,5.2-3,8-4.1c1.4-0.6,2.8-1,4.3-1.5l2.2-0.6c0.4-0.1,0.7-0.2,1.1-0.3
			l1.1-0.2c3-0.6,6.1-0.7,9.2-0.7l-0.3,4c-2.8-0.2-5.6-0.4-8.4,0l-1.1,0.1c-0.4,0-0.7,0.1-1,0.2L75.2,6c-1.4,0.3-2.8,0.6-4.1,1.1
			c-2.7,0.8-5.4,1.9-7.9,3.3c-0.6,0.3-1.3,0.7-1.9,1c-0.6,0.4-1.2,0.7-1.8,1.1c-1.2,0.8-2.4,1.6-3.5,2.5l-0.4,0.3L55.1,15
			c-1.1-0.9-2.3-1.7-3.5-2.5c-0.6-0.4-1.2-0.8-1.8-1.1c-0.6-0.3-1.3-0.7-1.9-1c-2.5-1.3-5.2-2.4-7.9-3.3c-1.3-0.5-2.7-0.7-4.1-1.1
			l-2.1-0.4c-0.3-0.1-0.7-0.1-1-0.2l-1.1-0.1c-2.8-0.3-5.6-0.2-8.4,0L22.9,1.4z"/>
		<linearGradient id="SVGID_2_" gradientUnits="userSpaceOnUse" x1="4.1799" y1="32.2963" x2="107.5257" y2="32.2963">
			<stop  offset="0" style="stop-color:#F05B85"/>
			<stop  offset="1" style="stop-color:#F68953"/>
		</linearGradient>
		<path class="st1" d="M82.1,8.9L82.1,8.9l-0.4,0l-0.3,0l-0.6,0L79.7,9c-0.7,0.1-1.5,0.2-2.2,0.3c-1.4,0.2-2.8,0.5-4.3,0.8
			c-2.8,0.6-5.6,1.5-8.3,2.6c-2.7,1.1-5.3,2.6-7.8,4.4c-0.6,0.4-1.2,0.9-1.8,1.4c-0.6-0.5-1.2-1-1.8-1.4c-2.4-1.8-5.1-3.3-7.8-4.4
			c-2.7-1.1-5.5-2-8.3-2.6c-1.4-0.3-2.8-0.6-4.3-0.8C32.7,9.2,32,9.1,31.3,9l-1.1-0.1l-0.6,0l-0.3,0l-0.4,0l0,0l-5.8-0.3l0.3,5.9
			l2.1,33.2l0,0l0.4,3.9l3.2-0.3L41.8,50v-4.5l-9-0.9l1.5-24.4c0.6,0,1.1,0.1,1.7,0.1c2.3,0.2,4.6,0.6,6.8,1.2
			c2.7,0.8,5.2,1.8,7.5,3.3c-1.3,2.3-2.3,4.8-2.8,7.3c-0.2,0.7-0.3,1.5-0.4,2.2c0,0.4-0.1,0.7-0.1,1.1L47,36.4l-0.1,1.1
			c0,0.4,0,0.7,0,1c0,0.7,0,1.4,0.1,2.1c0.1,1.4,0.3,2.9,0.6,4.3c0.3,1.4,5.3,1.7,7.6,11V43.1c-0.9-0.1-1.5-0.9-1.5-1.8
			c0-1,0.8-1.8,1.8-1.8s1.8,0.8,1.8,1.8c0,0.9-0.7,1.6-1.5,1.8V56c2.3-9.3,7.3-9.6,7.6-11c0.4-1.4,0.6-2.9,0.6-4.3
			c0.1-0.7,0.1-1.4,0.1-2.1c0-0.3,0-0.7,0-1L64,36.4L64,35.3c0-0.4-0.1-0.7-0.1-1.1c-0.1-0.7-0.2-1.5-0.4-2.2
			c-0.5-2.5-1.5-5-2.8-7.3c2.2-1.5,4.8-2.5,7.5-3.3c2.2-0.6,4.5-1,6.8-1.2c0.6-0.1,1.1-0.1,1.7-0.1l1.5,24.4l-9,0.9V50l12.8,1.3
			l3.2,0.3l0.4-3.9l0,0l2.1-33.2l0.3-5.9L82.1,8.9z"/>
	</g>
	<g>
		<linearGradient id="SVGID_3_" gradientUnits="userSpaceOnUse" x1="4.1799" y1="79.6029" x2="107.5257" y2="79.6029">
			<stop  offset="0" style="stop-color:#F05B85"/>
			<stop  offset="1" style="stop-color:#F68953"/>
		</linearGradient>
		<path class="st2" d="M26.3,63.6L33.7,88l-6.2,1.9l-4-13.2l-3,11.6l-0.6,0.2l-8.8-8l4,13.1l-6.2,1.9L1.4,71.2l6.2-1.9l9.4,8.6
			l3.1-12.3L26.3,63.6z"/>
		<linearGradient id="SVGID_4_" gradientUnits="userSpaceOnUse" x1="4.1799" y1="74.5661" x2="107.5257" y2="74.5661">
			<stop  offset="0" style="stop-color:#F05B85"/>
			<stop  offset="1" style="stop-color:#F68953"/>
		</linearGradient>
		<path class="st3" d="M53.1,86.7l-1.3-3.6l-8.5,0.5l-0.9,3.7l-7.1,0.5l6.8-26l7.9-0.5l10,24.9L53.1,86.7z M44.6,77.9l5.1-0.3
			l-3.1-8.5L44.6,77.9z"/>
		<linearGradient id="SVGID_5_" gradientUnits="userSpaceOnUse" x1="4.1799" y1="75.2383" x2="107.5257" y2="75.2383">
			<stop  offset="0" style="stop-color:#F05B85"/>
			<stop  offset="1" style="stop-color:#F68953"/>
		</linearGradient>
		<path class="st4" d="M75,88.3l-3.3-8.7l-2.3-0.3l-1.1,8.2l-6.5-0.8l3.3-25.3l10.1,1.3c2.6,0.3,4.6,1.5,6.1,3.3
			c1.6,1.9,2.2,4.1,1.8,6.6c-0.4,3-2.4,5.5-5.2,6.6l4,10L75,88.3z M70.8,68.1L70,73.8l3.6,0.5c1.6,0.2,2.9-0.8,3.1-2.5
			c0.2-1.7-0.7-3-2.3-3.2L70.8,68.1z"/>
		<linearGradient id="SVGID_6_" gradientUnits="userSpaceOnUse" x1="4.1799" y1="81.059" x2="107.5257" y2="81.059">
			<stop  offset="0" style="stop-color:#F05B85"/>
			<stop  offset="1" style="stop-color:#F68953"/>
		</linearGradient>
		<path class="st5" d="M104,96.5l-6.9-2.3l-3.3-13.1l-3.6,10.8l-6.2-2.1L92,65.6l6.2,2.1l-3.4,10.2l10-8l6.9,2.3l-11.6,9.2L104,96.5
			z"/>
	</g>
	<g>
		<linearGradient id="SVGID_7_" gradientUnits="userSpaceOnUse" x1="4.1799" y1="105.9995" x2="107.5257" y2="105.9995">
			<stop  offset="0" style="stop-color:#F05B85"/>
			<stop  offset="1" style="stop-color:#F68953"/>
		</linearGradient>
		<path class="st6" d="M23.5,110.5l-3.8-3.4l-2.3,0.7l1.4,4.2l-1.9,0.6l-3.8-11.6l4.6-1.5c1-0.3,2-0.3,3,0.2c1,0.5,1.6,1.2,2,2.3
			c0.5,1.5,0,3.1-1.2,4.1l4.1,3.6L23.5,110.5z M15.6,102.2l1.3,3.9l2.7-0.9c1-0.3,1.5-1.5,1.2-2.5c-0.4-1.1-1.5-1.7-2.5-1.3
			L15.6,102.2z"/>
		<linearGradient id="SVGID_8_" gradientUnits="userSpaceOnUse" x1="4.1799" y1="102.3194" x2="107.5257" y2="102.3194">
			<stop  offset="0" style="stop-color:#F05B85"/>
			<stop  offset="1" style="stop-color:#F68953"/>
		</linearGradient>
		<path class="st7" d="M30.2,106.8l5.3-1.1l0.4,1.9l-7.2,1.6l-2.6-11.9l7.2-1.5l0.4,1.9l-5.2,1.1l0.7,3.1l4.8-1l0.4,1.9l-4.8,1
			L30.2,106.8z"/>
		<linearGradient id="SVGID_9_" gradientUnits="userSpaceOnUse" x1="4.1799" y1="100.5963" x2="107.5257" y2="100.5963">
			<stop  offset="0" style="stop-color:#F05B85"/>
			<stop  offset="1" style="stop-color:#F68953"/>
		</linearGradient>
		<path class="st8" d="M47.3,106.1l-1.1-2.4l-5.2,0.5l-0.6,2.5l-2.2,0.2l3.1-12.6l2.4-0.2l5.7,11.7L47.3,106.1z M41.5,102.3l3.9-0.4
			l-2.5-5.3L41.5,102.3z"/>
		<linearGradient id="SVGID_10_" gradientUnits="userSpaceOnUse" x1="4.1799" y1="99.7013" x2="107.5257" y2="99.7013">
			<stop  offset="0" style="stop-color:#F05B85"/>
			<stop  offset="1" style="stop-color:#F68953"/>
		</linearGradient>
		<path class="st9" d="M57.2,93.6c1.7,0,3.1,0.6,4.1,1.8c1.1,1.2,1.6,2.6,1.6,4.4c0,1.7-0.6,3.1-1.7,4.3c-1.1,1.2-2.5,1.7-4.2,1.7
			l-4.8-0.1l0.2-12.2L57.2,93.6z M57,103.9c1.2,0,2.1-0.4,2.8-1.1c0.7-0.8,1.1-1.8,1.1-3c0-1.2-0.3-2.2-1.1-3
			c-0.7-0.8-1.6-1.2-2.8-1.2l-2.8,0l-0.1,8.4L57,103.9z"/>
		<linearGradient id="SVGID_11_" gradientUnits="userSpaceOnUse" x1="4.1799" y1="100.7086" x2="107.5257" y2="100.7086">
			<stop  offset="0" style="stop-color:#F05B85"/>
			<stop  offset="1" style="stop-color:#F68953"/>
		</linearGradient>
		<path class="st10" d="M68.4,104.6l5.4,0.7l-0.2,1.9l-7.4-0.9l1.5-12.1l7.3,0.9L74.8,97l-5.3-0.7l-0.4,3.1l4.8,0.6l-0.2,1.9
			l-4.8-0.6L68.4,104.6z"/>
		<linearGradient id="SVGID_12_" gradientUnits="userSpaceOnUse" x1="4.1799" y1="102.9527" x2="107.5257" y2="102.9527">
			<stop  offset="0" style="stop-color:#F05B85"/>
			<stop  offset="1" style="stop-color:#F68953"/>
		</linearGradient>
		<path class="st11" d="M83.8,109.4l-1.5-4.9L80,104l-1,4.3l-2-0.5L79.8,96l4.8,1.1c1.1,0.3,1.9,0.8,2.4,1.8c0.6,0.9,0.7,1.9,0.5,3
			c-0.4,1.5-1.6,2.7-3.2,2.9l1.6,5.3L83.8,109.4z M81.3,98.3l-0.9,4l2.8,0.7c1,0.2,2.1-0.4,2.3-1.5c0.3-1.1-0.4-2.2-1.4-2.4
			L81.3,98.3z"/>
		<linearGradient id="SVGID_13_" gradientUnits="userSpaceOnUse" x1="4.1799" y1="106.4127" x2="107.5257" y2="106.4127">
			<stop  offset="0" style="stop-color:#F05B85"/>
			<stop  offset="1" style="stop-color:#F68953"/>
		</linearGradient>
		<path class="st12" d="M89,108l2-0.4c0,1.5,0.7,2.4,2.2,3c1.4,0.5,2.4,0.1,2.7-0.8c0.2-0.5,0.1-0.9-0.2-1.3
			c-0.3-0.4-0.9-0.9-1.7-1.5c-1-0.7-1.5-1.1-2-1.9c-0.6-0.8-0.7-1.7-0.3-2.7c0.4-1,1-1.7,1.9-2c0.9-0.4,1.9-0.3,2.9,0
			c1.8,0.7,2.9,2.1,3.1,4l-1.9,0.4c-0.1-1.2-0.7-2.1-1.8-2.5c-1.1-0.4-2-0.1-2.3,0.8c-0.3,0.9,0.1,1.4,1.7,2.6
			c0.4,0.3,0.7,0.5,0.8,0.7c0.2,0.1,0.4,0.4,0.7,0.6c0.3,0.3,0.5,0.5,0.7,0.8c0.4,0.7,0.8,1.7,0.3,2.8c-0.4,1-1,1.7-2,2.1
			c-1,0.3-2,0.3-3.3-0.1C90.2,111.6,89,110,89,108z"/>
	</g>
</g>
</svg>
