<?xml version="1.0" standalone="no"?>
<!DOCTYPE svg PUBLIC "-//W3C//DTD SVG 20010904//EN"
 "http://www.w3.org/TR/2001/REC-SVG-20010904/DTD/svg10.dtd">
<svg version="1.0" xmlns="http://www.w3.org/2000/svg"
 width="1080.000000pt" height="1080.000000pt" viewBox="0 0 1080.000000 1080.000000"
 preserveAspectRatio="xMidYMid meet">
<metadata>
Created by potrace 1.14, written by Peter Selinger 2001-2017
</metadata>
<g transform="translate(0.000000,1080.000000) scale(0.100000,-0.100000)"
fill="#000000" stroke="none">
<path d="M10347 9914 c-1 -1 -74 -5 -162 -8 -88 -4 -173 -9 -190 -10 -16 -2
-64 -7 -105 -11 -41 -4 -91 -8 -110 -10 -63 -6 -211 -25 -245 -31 -10 -2 -37
-6 -60 -9 -22 -3 -74 -13 -115 -21 -41 -9 -84 -17 -95 -18 -86 -12 -135 -23
-350 -82 -49 -14 -97 -27 -105 -29 -265 -61 -880 -276 -1210 -422 -30 -13 -64
-28 -75 -33 -56 -24 -400 -195 -470 -233 -87 -47 -221 -122 -245 -137 -8 -6
-53 -33 -100 -61 -434 -263 -604 -377 -834 -556 -190 -149 -245 -194 -305
-248 -24 -22 -52 -47 -61 -55 -9 -8 -33 -30 -53 -49 l-36 -34 -88 80 c-169
153 -414 353 -432 353 -5 0 -11 3 -13 8 -1 4 -37 32 -78 62 -41 30 -80 59 -86
65 -6 5 -42 30 -80 54 -38 24 -134 86 -214 137 -491 316 -898 532 -1370 726
-255 105 -438 167 -675 229 -60 15 -137 36 -170 45 -33 9 -67 18 -75 19 -8 2
-107 29 -220 60 -113 32 -214 59 -225 61 -11 2 -81 15 -155 29 -74 14 -146 27
-160 30 -14 3 -43 8 -65 10 -22 3 -51 7 -65 10 -14 2 -43 7 -65 9 -22 3 -58 7
-80 10 -55 7 -137 15 -220 21 -38 3 -92 7 -120 10 -71 6 -380 16 -583 19
l-174 2 6 -70 c3 -39 8 -91 10 -116 3 -25 8 -72 11 -105 4 -33 8 -76 10 -95 2
-19 7 -66 11 -105 4 -38 8 -79 9 -90 1 -11 3 -32 4 -47 1 -22 5 -26 24 -23 24
4 146 11 367 21 275 13 738 7 908 -11 102 -12 131 -14 202 -20 41 -4 143 -20
225 -36 83 -16 197 -39 255 -50 96 -19 270 -59 540 -126 202 -50 819 -274
1058 -384 35 -16 65 -29 67 -29 18 0 370 -174 613 -302 112 -59 205 -108 207
-108 7 0 343 -218 355 -230 3 -3 52 -36 110 -75 58 -38 107 -72 110 -75 11
-11 277 -207 302 -223 l26 -16 119 90 c211 162 643 459 668 459 2 0 39 22 82
48 85 53 151 89 318 177 61 32 115 61 120 65 14 11 274 141 360 180 147 68
173 79 260 114 50 20 99 41 110 46 44 20 219 81 370 130 88 28 183 60 210 70
45 17 269 84 320 96 11 2 29 6 40 9 11 2 83 18 160 35 77 18 151 33 165 35 14
2 45 8 70 14 25 5 65 13 90 16 24 4 47 8 50 10 3 2 25 6 49 10 24 3 53 10 66
15 34 13 129 28 225 35 47 3 99 8 115 11 60 8 110 14 189 20 45 3 97 8 116 10
51 5 469 5 580 -1 223 -11 352 -19 462 -29 32 -4 37 -1 41 22 3 15 6 165 6
335 l2 308 -226 -3 c-125 -1 -227 -3 -228 -4z"/>
<path d="M45 8593 c6 -152 15 -319 20 -408 2 -38 7 -122 10 -185 3 -63 8 -151
10 -195 3 -44 7 -125 10 -180 3 -55 8 -125 10 -155 2 -30 7 -100 10 -155 3
-55 8 -125 10 -155 2 -30 7 -100 10 -155 3 -55 8 -129 10 -165 3 -36 7 -103
10 -150 10 -175 15 -257 20 -325 2 -38 7 -110 10 -160 3 -49 7 -119 10 -155 3
-36 7 -110 10 -165 3 -55 7 -127 10 -160 2 -33 7 -105 10 -160 3 -55 8 -127
10 -160 3 -33 7 -103 10 -155 3 -52 8 -124 10 -160 3 -36 7 -105 10 -155 3
-49 8 -121 10 -160 3 -38 8 -110 10 -160 3 -49 7 -121 10 -160 9 -126 15 -219
20 -310 10 -165 15 -239 20 -320 7 -103 13 -197 20 -310 3 -49 8 -121 10 -160
3 -38 7 -110 10 -160 3 -49 8 -117 10 -150 5 -65 12 -175 20 -325 3 -52 7
-120 10 -150 2 -30 6 -104 10 -165 6 -114 13 -205 20 -265 2 -19 7 -64 10
-100 3 -36 8 -81 10 -100 2 -19 7 -62 10 -95 3 -33 8 -78 10 -100 2 -22 7 -69
11 -105 3 -36 8 -68 11 -72 2 -4 18 -6 36 -3 18 2 67 7 109 10 43 4 90 8 105
10 16 2 64 6 108 9 44 4 96 8 115 11 19 2 62 6 95 10 33 3 101 10 150 15 50 5
117 12 150 15 33 3 96 10 140 15 44 5 105 11 135 14 113 10 186 18 210 21 14
2 61 7 105 11 44 3 88 8 97 9 9 2 57 7 105 10 48 4 90 9 93 10 3 2 39 6 80 9
41 4 91 9 110 11 19 3 60 7 90 10 89 9 142 14 195 20 28 2 75 7 105 10 30 3
75 7 100 10 25 3 70 7 100 10 30 3 67 8 81 11 l26 5 1 370 c0 203 -4 371 -8
374 -4 2 -38 7 -76 10 -38 3 -85 8 -104 10 -44 6 -157 17 -295 30 -38 3 -83 8
-100 10 -16 2 -59 7 -95 10 -36 3 -83 8 -105 10 -22 3 -67 7 -100 10 -33 3
-80 8 -105 11 -45 6 -75 9 -183 18 -32 3 -77 8 -100 11 -23 2 -71 7 -107 10
-36 3 -74 8 -85 10 -11 2 -23 4 -27 4 -3 1 -4 17 -3 37 2 20 7 89 10 153 3 64
8 136 10 161 2 25 7 92 10 150 3 58 7 134 10 170 2 36 7 112 10 170 4 58 8
132 10 165 2 33 7 101 10 150 13 222 16 264 20 330 3 39 7 113 10 165 3 52 7
122 9 155 7 103 21 320 31 490 3 55 8 132 10 170 3 39 7 108 10 155 3 47 7
119 10 160 3 41 7 116 10 165 3 50 7 124 10 165 2 41 7 116 10 165 3 50 8 124
10 165 3 41 7 116 10 165 3 50 7 119 10 153 5 67 17 258 18 279 0 9 19 11 66
8 36 -2 104 -7 151 -10 122 -8 195 -15 310 -30 19 -3 55 -7 80 -10 25 -4 56
-8 70 -10 14 -2 45 -7 70 -10 56 -8 430 -82 450 -89 8 -3 26 -8 40 -10 134
-26 466 -132 693 -222 300 -119 714 -340 710 -380 -1 -10 -25 -62 -53 -114
-133 -249 -254 -547 -334 -825 -46 -159 -111 -466 -122 -576 -3 -30 -7 -67 -9
-84 -23 -178 -39 -796 -23 -937 4 -38 10 -104 13 -147 3 -43 7 -86 9 -97 2
-11 7 -49 10 -84 11 -106 43 -316 50 -329 2 -3 7 -31 11 -61 14 -119 38 -145
301 -327 147 -102 175 -125 289 -238 221 -218 392 -489 528 -835 42 -108 94
-257 102 -290 12 -53 48 -176 54 -182 3 -4 6 465 6 1042 l0 1049 -56 21 c-157
57 -237 249 -167 402 105 229 430 236 539 12 72 -150 6 -324 -154 -402 l-64
-32 0 -1067 0 -1068 24 85 c135 475 292 806 517 1087 131 163 285 298 521 460
131 90 139 97 172 133 17 20 52 125 67 204 2 6 8 36 14 66 10 51 16 85 27 165
11 82 15 130 20 247 3 70 8 142 10 160 7 49 7 506 0 562 -3 28 -8 122 -11 210
-2 89 -6 175 -8 191 -2 17 -7 55 -10 85 -6 48 -15 105 -30 192 -11 63 -82 355
-108 443 -78 267 -213 590 -347 834 -23 41 -40 75 -39 77 2 1 53 32 113 69
255 155 585 301 935 413 223 71 239 76 300 88 14 3 48 11 75 18 48 14 234 54
285 62 14 2 59 11 100 19 41 8 95 17 120 20 25 3 56 7 70 9 33 6 260 34 330
40 30 3 73 8 95 11 55 8 207 13 221 8 6 -2 12 -32 13 -66 2 -34 4 -80 6 -102
1 -22 6 -94 9 -160 4 -66 8 -138 11 -160 2 -22 7 -94 10 -160 3 -66 8 -147 10
-180 7 -90 13 -181 30 -480 3 -55 8 -129 10 -165 2 -36 7 -108 10 -160 3 -52
8 -124 10 -160 3 -36 7 -110 10 -165 3 -55 8 -129 10 -165 3 -36 7 -105 10
-155 3 -49 7 -121 10 -160 3 -38 7 -113 10 -165 11 -180 14 -235 19 -320 3
-47 8 -125 11 -175 9 -155 16 -268 21 -330 2 -33 7 -105 9 -160 3 -55 7 -122
10 -150 2 -27 7 -110 11 -182 l6 -133 -23 -1 c-13 0 -40 -2 -59 -4 -128 -12
-168 -16 -195 -19 -63 -8 -142 -16 -200 -21 -33 -3 -80 -7 -105 -10 -25 -2
-72 -7 -105 -10 -33 -4 -76 -8 -95 -11 -19 -2 -62 -6 -95 -9 -59 -5 -126 -12
-195 -20 -19 -2 -66 -7 -105 -10 -38 -3 -86 -8 -105 -10 -104 -12 -157 -17
-177 -16 -12 0 -25 -4 -29 -11 -9 -14 -9 -747 0 -756 8 -7 21 -9 111 -17 39
-3 86 -8 105 -10 53 -6 120 -13 290 -30 85 -9 173 -18 195 -20 68 -7 158 -16
202 -20 23 -2 64 -6 92 -9 28 -3 74 -8 101 -11 82 -8 153 -16 190 -20 19 -2
67 -7 105 -10 39 -3 81 -8 95 -10 14 -2 59 -6 100 -9 41 -4 86 -8 100 -10 14
-3 57 -7 95 -11 39 -3 84 -8 100 -10 17 -2 62 -7 100 -10 39 -4 84 -8 100 -10
35 -5 134 -14 220 -21 33 -2 74 -6 90 -8 17 -3 66 -7 110 -11 44 -3 96 -8 116
-11 l37 -5 7 63 c4 35 8 74 10 88 2 14 6 54 10 90 3 36 7 81 10 100 2 19 7 64
10 100 6 61 9 91 20 200 5 44 10 131 20 310 3 47 7 117 10 155 6 98 15 228 30
475 3 41 7 113 10 160 3 47 8 121 10 164 3 43 7 113 10 155 3 42 7 114 10 161
3 47 7 112 9 145 3 33 8 103 11 155 3 52 8 127 10 165 3 39 7 113 10 165 3 52
7 122 10 155 2 33 7 103 10 155 3 52 8 122 10 155 2 33 7 107 10 165 3 58 8
132 10 165 2 33 7 105 10 160 3 55 8 129 11 165 2 36 7 101 9 145 3 44 7 114
10 155 3 41 8 113 10 160 6 95 12 188 20 299 3 41 7 117 10 170 2 53 7 121 9
151 3 30 8 102 11 160 3 58 8 130 10 160 2 30 6 100 10 155 3 55 8 129 10 165
2 36 7 108 10 160 3 52 7 120 10 150 2 30 7 105 10 165 3 61 8 148 11 195 3
47 8 243 11 436 l6 351 -54 -3 c-30 -2 -112 -6 -184 -9 -71 -3 -166 -7 -210
-10 -44 -3 -123 -7 -175 -10 -52 -2 -151 -7 -220 -10 -69 -3 -199 -8 -290 -11
-91 -2 -181 -6 -200 -9 -70 -9 -115 -15 -140 -20 -14 -2 -52 -7 -85 -11 -33
-3 -68 -8 -79 -10 -10 -2 -44 -6 -75 -10 -31 -3 -58 -8 -61 -9 -3 -2 -33 -7
-65 -10 -33 -4 -62 -9 -65 -10 -3 -2 -26 -6 -50 -10 -25 -3 -53 -8 -63 -11
-10 -3 -30 -7 -45 -9 -50 -7 -425 -86 -552 -116 -69 -17 -132 -32 -140 -34
-34 -7 -213 -59 -335 -97 -737 -228 -1281 -483 -1845 -866 -181 -122 -323
-226 -400 -292 -30 -26 -61 -50 -68 -54 -12 -7 -55 19 -94 57 -21 20 -210 162
-333 249 -382 272 -834 512 -1305 695 -112 44 -295 112 -315 117 -5 2 -17 6
-25 9 -40 15 -277 90 -370 117 -58 17 -118 35 -135 40 -181 55 -722 170 -1035
220 -69 11 -136 22 -150 25 -27 5 -93 16 -127 20 -13 2 -41 6 -62 10 -74 12
-115 15 -284 20 -160 4 -276 9 -502 21 -55 3 -134 7 -175 9 -227 11 -322 16
-383 21 l-67 5 5 -118z"/>
</g>
</svg>
