<?xml version="1.0" encoding="utf-8"?>
<!-- Generator: Adobe Illustrator 22.1.0, SVG Export Plug-In . SVG Version: 6.00 Build 0)  -->
<svg version="1.1" id="Layer_1" xmlns="http://www.w3.org/2000/svg" xmlns:xlink="http://www.w3.org/1999/xlink" x="0px" y="0px"
	 viewBox="0 0 482.5 563.9" style="enable-background:new 0 0 482.5 563.9;" xml:space="preserve">
<style type="text/css">
	.st0{fill:#C4CCD4;}
	.st1{fill:#C4CDD5;}
	.st2{fill:#DFE3E8;}
	.st3{fill:#FAA42A;}
	.st4{fill:#21385D;}
	.st5{fill:#043049;}
	.st6{fill:#15375E;}
	.st7{fill:#1C1C1C;}
	.st8{fill:#375580;}
	.st9{opacity:0.8;fill:#919EAB;}
	.st10{fill:#4E52A3;}
	.st11{fill:#46449B;}
	.st12{fill:#F5B59B;}
	.st13{fill:#E5C0AC;}
	.st14{fill:#E0E1E0;}
	.st15{fill:#5455A5;}
	.st16{fill:#919EAB;}
	.st17{fill:#FFFFFF;}
	.st18{fill:#674C3D;}
	.st19{fill:#836456;}
	.st20{fill:#010101;}
	.st21{fill:#EDA78E;}
</style>
<g>
	<g>
		<circle class="st0" cx="103" cy="3" r="3"/>
		<circle class="st0" cx="128" cy="3" r="3"/>
		<circle class="st0" cx="153" cy="3" r="3"/>
		<circle class="st0" cx="178" cy="3" r="3"/>
		<circle class="st0" cx="53" cy="28" r="3"/>
		<circle class="st0" cx="78" cy="28" r="3"/>
		<circle class="st0" cx="103" cy="28" r="3"/>
		<circle class="st0" cx="128" cy="28" r="3"/>
		<circle class="st0" cx="153" cy="28" r="3"/>
		<circle class="st0" cx="178" cy="28" r="3"/>
		<circle class="st0" cx="203" cy="28" r="3"/>
		<circle class="st0" cx="228" cy="28" r="3"/>
		<circle class="st0" cx="28" cy="53" r="3"/>
		<circle class="st0" cx="53" cy="53" r="3"/>
		<circle class="st0" cx="78" cy="53" r="3"/>
		<circle class="st0" cx="103" cy="53" r="3"/>
		<circle class="st0" cx="128" cy="53" r="3"/>
		<circle class="st0" cx="153" cy="53" r="3"/>
		<circle class="st0" cx="178" cy="53" r="3"/>
		<circle class="st0" cx="203" cy="53" r="3"/>
		<circle class="st0" cx="228" cy="53" r="3"/>
		<circle class="st0" cx="253" cy="53" r="3"/>
		<circle class="st0" cx="28" cy="78" r="3"/>
		<circle class="st0" cx="53" cy="78" r="3"/>
		<circle class="st0" cx="78" cy="78" r="3"/>
		<circle class="st0" cx="103" cy="78" r="3"/>
		<circle class="st0" cx="128" cy="78" r="3"/>
		<circle class="st0" cx="153" cy="78" r="3"/>
		<circle class="st0" cx="178" cy="78" r="3"/>
		<circle class="st0" cx="203" cy="78" r="3"/>
		<circle class="st0" cx="228" cy="78" r="3"/>
		<circle class="st0" cx="253" cy="78" r="3"/>
		<circle class="st0" cx="3" cy="103" r="3"/>
		<circle class="st0" cx="28" cy="103" r="3"/>
		<circle class="st0" cx="53" cy="103" r="3"/>
		<circle class="st0" cx="78" cy="103" r="3"/>
		<circle class="st0" cx="103" cy="103" r="3"/>
		<circle class="st0" cx="128" cy="103" r="3"/>
		<circle class="st0" cx="153" cy="103" r="3"/>
		<circle class="st0" cx="178" cy="103" r="3"/>
		<circle class="st0" cx="203" cy="103" r="3"/>
		<circle class="st0" cx="228" cy="103" r="3"/>
		<circle class="st0" cx="253" cy="103" r="3"/>
		<circle class="st0" cx="278" cy="103" r="3"/>
		<circle class="st0" cx="3" cy="128" r="3"/>
		<circle class="st0" cx="28" cy="128" r="3"/>
		<circle class="st0" cx="53" cy="128" r="3"/>
		<circle class="st0" cx="78" cy="128" r="3"/>
		<circle class="st0" cx="103" cy="128" r="3"/>
		<circle class="st0" cx="128" cy="128" r="3"/>
		<circle class="st0" cx="153" cy="128" r="3"/>
		<circle class="st0" cx="178" cy="128" r="3"/>
		<circle class="st0" cx="203" cy="128" r="3"/>
		<circle class="st0" cx="228" cy="128" r="3"/>
		<circle class="st0" cx="253" cy="128" r="3"/>
		<circle class="st0" cx="278" cy="128" r="3"/>
		<circle class="st0" cx="3" cy="153" r="3"/>
		<circle class="st0" cx="28" cy="153" r="3"/>
		<circle class="st0" cx="53" cy="153" r="3"/>
		<circle class="st0" cx="78" cy="153" r="3"/>
		<circle class="st0" cx="103" cy="153" r="3"/>
		<circle class="st0" cx="128" cy="153" r="3"/>
		<circle class="st0" cx="153" cy="153" r="3"/>
		<circle class="st0" cx="178" cy="153" r="3"/>
		<circle class="st0" cx="203" cy="153" r="3"/>
		<circle class="st0" cx="228" cy="153" r="3"/>
		<circle class="st0" cx="253" cy="153" r="3"/>
		<circle class="st0" cx="278" cy="153" r="3"/>
		<circle class="st0" cx="3" cy="178" r="3"/>
		<circle class="st0" cx="28" cy="178" r="3"/>
		<circle class="st0" cx="53" cy="178" r="3"/>
		<circle class="st0" cx="78" cy="178" r="3"/>
		<circle class="st0" cx="103" cy="178" r="3"/>
		<circle class="st0" cx="128" cy="178" r="3"/>
		<circle class="st0" cx="153" cy="178" r="3"/>
		<circle class="st0" cx="178" cy="178" r="3"/>
		<circle class="st0" cx="203" cy="178" r="3"/>
		<circle class="st0" cx="228" cy="178" r="3"/>
		<circle class="st0" cx="253" cy="178" r="3"/>
		<circle class="st0" cx="28" cy="203" r="3"/>
		<circle class="st0" cx="53" cy="203" r="3"/>
		<circle class="st0" cx="78" cy="203" r="3"/>
		<circle class="st0" cx="103" cy="203" r="3"/>
		<circle class="st0" cx="128" cy="203" r="3"/>
		<circle class="st0" cx="153" cy="203" r="3"/>
		<circle class="st0" cx="178" cy="203" r="3"/>
		<circle class="st0" cx="203" cy="203" r="3"/>
		<circle class="st0" cx="228" cy="203" r="3"/>
		<circle class="st0" cx="253" cy="203" r="3"/>
		<circle class="st0" cx="28" cy="228" r="3"/>
		<circle class="st0" cx="53" cy="228" r="3"/>
		<circle class="st0" cx="78" cy="228" r="3"/>
		<circle class="st0" cx="103" cy="228" r="3"/>
		<circle class="st0" cx="128" cy="228" r="3"/>
		<circle class="st0" cx="153" cy="228" r="3"/>
		<circle class="st0" cx="178" cy="228" r="3"/>
		<circle class="st0" cx="203" cy="228" r="3"/>
		<circle class="st0" cx="228" cy="228" r="3"/>
		<circle class="st0" cx="253" cy="228" r="3"/>
		<circle class="st0" cx="53" cy="253" r="3"/>
		<circle class="st0" cx="78" cy="253" r="3"/>
		<circle class="st0" cx="103" cy="253" r="3"/>
		<circle class="st0" cx="128" cy="253" r="3"/>
		<circle class="st0" cx="153" cy="253" r="3"/>
		<circle class="st0" cx="178" cy="253" r="3"/>
		<circle class="st0" cx="203" cy="253" r="3"/>
		<circle class="st0" cx="228" cy="253" r="3"/>
		<circle class="st0" cx="103" cy="278" r="3"/>
		<circle class="st0" cx="128" cy="278" r="3"/>
		<circle class="st0" cx="153" cy="278" r="3"/>
		<circle class="st0" cx="178" cy="278" r="3"/>
	</g>
	<g>
		<circle class="st0" cx="8.3" cy="510.9" r="3"/>
		<circle class="st0" cx="33.3" cy="510.9" r="3"/>
		<circle class="st0" cx="58.3" cy="510.9" r="3"/>
		<circle class="st0" cx="83.3" cy="510.9" r="3"/>
		<circle class="st0" cx="108.3" cy="510.9" r="3"/>
		<circle class="st0" cx="133.3" cy="510.9" r="3"/>
		<circle class="st0" cx="158.3" cy="510.9" r="3"/>
		<circle class="st0" cx="8.3" cy="535.9" r="3"/>
		<circle class="st0" cx="33.3" cy="535.9" r="3"/>
		<circle class="st0" cx="58.3" cy="535.9" r="3"/>
		<circle class="st0" cx="83.3" cy="535.9" r="3"/>
		<circle class="st0" cx="108.3" cy="535.9" r="3"/>
		<circle class="st0" cx="133.3" cy="535.9" r="3"/>
		<circle class="st0" cx="158.3" cy="535.9" r="3"/>
		<circle class="st0" cx="8.3" cy="560.9" r="3"/>
		<circle class="st0" cx="33.3" cy="560.9" r="3"/>
		<circle class="st0" cx="58.3" cy="560.9" r="3"/>
		<circle class="st0" cx="83.3" cy="560.9" r="3"/>
		<circle class="st0" cx="108.3" cy="560.9" r="3"/>
		<circle class="st0" cx="133.3" cy="560.9" r="3"/>
		<circle class="st0" cx="158.3" cy="560.9" r="3"/>
		<circle class="st0" cx="183.9" cy="510.9" r="3"/>
		<circle class="st0" cx="208.9" cy="510.9" r="3"/>
		<circle class="st0" cx="183.9" cy="535.9" r="3"/>
		<circle class="st0" cx="208.9" cy="535.9" r="3"/>
		<circle class="st0" cx="183.9" cy="560.9" r="3"/>
		<circle class="st0" cx="208.9" cy="560.9" r="3"/>
	</g>
	<g>
		<circle class="st0" cx="429.5" cy="410.9" r="3"/>
		<circle class="st0" cx="454.5" cy="410.9" r="3"/>
		<circle class="st0" cx="479.5" cy="410.9" r="3"/>
		<circle class="st0" cx="429.5" cy="435.9" r="3"/>
		<circle class="st0" cx="454.5" cy="435.9" r="3"/>
		<circle class="st0" cx="479.5" cy="435.9" r="3"/>
		<circle class="st0" cx="429.5" cy="460.9" r="3"/>
		<circle class="st0" cx="454.5" cy="460.9" r="3"/>
		<circle class="st0" cx="479.5" cy="460.9" r="3"/>
		<circle class="st0" cx="429.5" cy="485.9" r="3"/>
		<circle class="st0" cx="454.5" cy="485.9" r="3"/>
		<circle class="st0" cx="479.5" cy="485.9" r="3"/>
		<circle class="st0" cx="429.5" cy="510.9" r="3"/>
		<circle class="st0" cx="454.5" cy="510.9" r="3"/>
		<circle class="st0" cx="479.5" cy="510.9" r="3"/>
		<circle class="st0" cx="429.5" cy="535.9" r="3"/>
		<circle class="st0" cx="454.5" cy="535.9" r="3"/>
		<circle class="st0" cx="479.5" cy="535.9" r="3"/>
		<circle class="st0" cx="429.5" cy="560.9" r="3"/>
		<circle class="st0" cx="454.5" cy="560.9" r="3"/>
		<circle class="st0" cx="479.5" cy="560.9" r="3"/>
	</g>
</g>
<g>
	<g>
		<polygon class="st1" points="360.3,247.1 392.6,247.1 387.8,281.8 365.3,281.8 		"/>
		<path class="st1" d="M364.6,273.8c-2,0-6.7-0.3-9.9-2.8c-2.1-1.7-3.2-3.9-3.2-6.7c0-3.1,1.1-5.5,3.3-7.2c3.5-2.8,8.5-2.4,8.7-2.4
			l-0.4,3.8c0,0-3.3-0.2-5.4,1.4c-1.2,1-1.8,2.4-1.8,4.4c0,1.7,0.6,3,1.8,4c2.7,2.1,7.5,1.8,7.6,1.8l0.4,3.8
			C365.5,273.8,365.1,273.8,364.6,273.8z"/>
	</g>
	<path class="st2" d="M375.9,240.5c-2.5-2.1-4.4-4.3-6.3-6.9c-1.8-2.6-3.3-5.6-4-9.1c-0.7-3.5-0.3-7.7,1.4-11.1
		c1.6-3.5,4.2-6.2,6.8-8.4c0.7-0.6,1.2-1,1.7-1.4l1.5-1.3c1-0.9,1.9-1.8,2.7-2.7c1.7-1.8,3.2-3.7,3.6-4.9c0.2-0.6,0.1-0.9-0.2-0.6
		c-0.2,0.3-0.2,1-0.4,0.9c-0.3-0.1-1.9-1.7-3.9-3.2c-4.5-3.3-5.4-9.7-2-14.1c3.3-4.5,9.7-5.4,14.1-2c0.7,0.5,1.2,1.1,1.7,1.7
		l0.3,0.4c1,1.2,2,2.5,3.1,4.1c1.1,1.6,2.2,3.3,3.2,5.9c1,2.4,1.5,6,0.8,9c-0.6,3.1-2.1,5.3-3.4,7c-2.7,3.3-5.5,5.1-8.1,6.9
		c-1.3,0.9-2.6,1.6-3.9,2.3l-3.7,2c-1.9,1-3.5,2.2-4.5,3.6c-1.1,1.4-1.6,3-1.7,5c0,4,2.4,9,5.3,12.9l0.2,0.2c1,1.3,0.7,3.1-0.5,4.1
		C378.5,241.5,377,241.4,375.9,240.5z"/>
</g>
<g>
	<g>
		<g>
			<g>
				
					<rect x="271.5" y="344.7" transform="matrix(-1 -1.224647e-16 1.224647e-16 -1 555.4861 810.8407)" class="st2" width="12.5" height="121.4"/>
			</g>
			<g>
				
					<rect x="255.6" y="343.4" transform="matrix(-1 -1.224647e-16 1.224647e-16 -1 555.4879 704.6812)" class="st1" width="44.2" height="17.9"/>
			</g>
			<g>
				<path class="st3" d="M223.8,349.6h111.5v-7.6c0-7.7-6.2-13.9-13.9-13.9h-83.6c-7.7,0-13.9,6.2-13.9,13.9V349.6z"/>
			</g>
			<g>
				<path class="st1" d="M230.7,487.4c0,0,22.3-0.8,47-0.8c23,0,45.9,0.8,45.9,0.8l-1.8-4c-7.9-17.6-37.9-10.7-44.7-28.9h0
					c-5.7,18.1-36.8,11.3-44.7,28.9L230.7,487.4z"/>
			</g>
		</g>
	</g>
</g>
<g>
	<path class="st4" d="M312.6,327.8c0,0,9.9-10.1,3.5-44.8H235c0,0-1.2,18.4,0.7,44.8H312.6z"/>
	<g>
		<path class="st5" d="M262.8,295.3c-40.7,2.5-116.4,12.2-130.2,37.6c-4.2,7.6-6.5,17.9-0.1,23.9c24.7,23.6,31.8,33.4,75.1,75.5
			c0.3,0.3-0.4,0.1,0,0l17-10.1c0.7-0.2,0.4,0.6,0,0c-35.6-56.4-43.6-64.3-56.9-72.2c12.8-6.2,50.1-15.7,90.7-19.6
			c8.9-0.9,15.4-8.8,14.6-17.7C272,303.9,271.6,294.8,262.8,295.3z"/>
		<g>
			<path class="st6" d="M311.4,299.3c-1.2-8.3-13.6-9.7-22-9.2c-91.8,5.8-104.8,18.8-109.1,23.9c-3.5,4.1-3.6,9.3-4.2,14.5
				c-3.1,28.3-7.5,77.9-14.1,118.6c6.8,1.2,19.6,3.1,28.8,4.7c0,0,14-66.6,18.1-107.1c16.7-3.5,62.4-7.7,99.1-14.9
				C320.6,327.2,313.1,311.2,311.4,299.3z"/>
		</g>
		<g>
			<path class="st7" d="M181.3,485.7l4.4-33l-21.6,0.4l-3,12.7l-26.4,6.4c-4.4,1.1-7.4,4.8-7.7,9.3v4.2H181.3L181.3,485.7z"/>
			
				<rect x="168.6" y="430.3" transform="matrix(0.1639 -0.9865 0.9865 0.1639 -296.7107 548.926)" class="st8" width="13.8" height="38.4"/>
		</g>
		<g>
			<path class="st7" d="M244,444.3l-17.2-20.8l-17.4,10.8l9.5,10.2L199,461.8c-3.5,2.3-5.2,6.3-4.5,10.3c0.1,0.7,0.4,1.3,0.8,1.8
				l2.9,4.5c0,0,44.7-27.7,44.9-28.2C243.1,450.2,245.9,446.9,244,444.3z"/>
			
				<rect x="197.7" y="419.2" transform="matrix(0.8272 -0.5619 0.5619 0.8272 -202.3406 194.1698)" class="st8" width="33.8" height="13.8"/>
		</g>
	</g>
</g>
<rect x="271.5" y="361.3" class="st9" width="12.5" height="7.5"/>
<g>
	<path class="st10" d="M222.8,272.3c-0.3,0-0.6,0.1-0.9,0.1l-73,3.5l-1.2-23.9l65.4-3.2c8.8-21.7,22.9-48,22.9-48
		c-0.1,0.3,0.7,0,0.7,0l22.8-2.1c2.1,5.4-2.8,6.5-27.2,66.2C230.7,268.9,227,271.7,222.8,272.3z"/>
	<path class="st11" d="M284.2,187.9l2.3,0.5c10.2,2.4,17.9,10.7,19.7,21l13.6,84.5c-59.9,15.2-88,1.4-88,1.4l2.5-84.3
		c-0.5-9.7,5.2-18.8,14.2-22.5l0,0L284.2,187.9z"/>
	<polygon class="st12" points="275.7,195.7 256.1,192.7 255.3,150.4 275,153.4 	"/>
	<path class="st12" d="M251.5,188.4l30.4-0.6c0,0-1.4,17.6-19.6,16.1C245.6,202.6,251.5,188.4,251.5,188.4z"/>
	<g>
		<path class="st13" d="M196.9,272.7c0,6.4-5.4,11.5-12,11.4c-6.6,0-11.9-5.2-11.9-11.6c0-6.4,5.4-11.5,12-11.4
			C191.6,261.1,196.9,266.3,196.9,272.7z"/>
		<path class="st13" d="M204.5,278.5l-12.4-0.1c-3.3,0-5.9-2.6-5.9-5.7l0,0c0-3.1,2.7-5.7,6-5.7l12.4,0.1c3.3,0,5.9,2.6,5.9,5.7l0,0
			C210.5,276,207.8,278.5,204.5,278.5z"/>
	</g>
	<path class="st14" d="M224.5,284.7l50.4-3c5.9-0.7,11-4.5,13.1-9.9l13.8-54.3L290.4,279c-1.2,4-5,6.8-9.3,6.9l-50.5,3.2
		L224.5,284.7z"/>
	<path class="st15" d="M204.3,285.9l-1.5-22.9l65.7-3.9l12.3-56c2.4-5.9,9.3-8.9,15.4-6.6l0,0c6.2,2.3,9.2,8.9,6.9,14.8l-15.1,63
		c-1.7,4.2-5.7,7.1-10.4,7.4L204.3,285.9z"/>
</g>
<g>
	<path class="st1" d="M137.5,198.6l28.1,75.4H74.4l-24.5-67c-1.5-4.1,1.5-8.4,5.9-8.4H137.5z"/>
	<path class="st2" d="M137.5,198.6h4.4c2.3,0,4.4,1.5,5.3,3.7l26.5,71.7h-8L137.5,198.6z"/>
	<path class="st16" d="M79.6,281.2h86V274H74.6v2.3C74.6,279,76.8,281.2,79.6,281.2z"/>
	<path class="st2" d="M165.6,281.2h56.3c2,0,3.6-1.6,3.6-3.6l0,0c0-2-1.6-3.6-3.6-3.6h-56.3V281.2z"/>
	<path class="st17" d="M112.9,236.1c1.7,5.2-0.4,10.6-4.6,12c-4.3,1.4-9.2-1.7-10.9-6.9c-1.7-5.2,0.4-10.6,4.6-12
		C106.3,227.8,111.2,230.8,112.9,236.1z"/>
</g>
<g>
	<rect x="5.3" y="281.2" class="st18" width="329.1" height="12.5"/>
	<rect x="334.3" y="281.2" class="st19" width="94.9" height="12.5"/>
	<rect x="30.7" y="293.7" class="st2" width="9.5" height="193.3"/>
	<rect x="93.5" y="293.7" class="st1" width="9.5" height="193.3"/>
	<rect x="334.3" y="293.7" class="st2" width="9.5" height="193.3"/>
	<rect x="397.1" y="293.7" class="st1" width="9.5" height="193.3"/>
	<rect x="397.1" y="293.7" class="st9" width="9.5" height="6.6"/>
	<rect x="334.3" y="293.7" class="st9" width="9.5" height="6.6"/>
	<rect x="93.5" y="293.7" class="st9" width="9.5" height="6.6"/>
	<rect x="30.7" y="293.7" class="st9" width="9.5" height="6.6"/>
</g>
<g>
	<g>
		<path class="st12" d="M259.3,178l-17.4,2.7c-7.5-0.4-13.3-6.8-13-14.3l2.2-43.7l46.5,2.3l-4.2,42.2
			C273,174.8,266.8,178.4,259.3,178z"/>
		<path class="st20" d="M274,150.6c0,0-9.9-8.3-10.9-23.1c0,0-38.7,9.7-40-6.4c-1.1-14.9,15.3-19.4,27.6-14.3
			c6.5,2.7,18.6,9.1,26.9,11.1c3.3,0.8,6.3,2.8,8.2,5.7c3.1,4.8,5.3,12.8-5.2,21L274,150.6z"/>
		<g>
			<path class="st7" d="M236.7,147.2c0,1.4-1.1,2.5-2.5,2.6s-2.6-1.1-2.6-2.4c0-1.4,1.1-2.5,2.5-2.6
				C235.5,144.7,236.7,145.8,236.7,147.2z"/>
			<path class="st7" d="M254,146.8c0,1.4-1.1,2.5-2.5,2.6c-1.4,0-2.6-1.1-2.6-2.4c0-1.4,1.1-2.5,2.5-2.6
				C252.7,144.3,253.9,145.4,254,146.8z"/>
			<path class="st20" d="M257.6,140.5c1.4-0.1,2.4-1.3,2.4-2.7c0-1.4-1.2-2.6-2.7-2.6l-10.1,0.2c-1.5,0-2.6,1.2-2.6,2.7
				c0,1.4,1.2,2.6,2.7,2.6l10.1-0.2C257.5,140.5,257.5,140.5,257.6,140.5z"/>
			<path class="st20" d="M236.6,141c1.4-0.1,2.4-1.3,2.4-2.7c0-1.4-1.2-2.6-2.7-2.6l-6.5,0.2c-1.4,0-2.6,1.2-2.6,2.7
				c0,1.4,1.2,2.6,2.7,2.6l6.5-0.2C236.5,141,236.6,141,236.6,141z"/>
			<path class="st21" d="M241.7,148.7l-5.9,5.7c-0.7,0.7-0.3,1.9,0.7,2l6.8,0.9L241.7,148.7L241.7,148.7z"/>
		</g>
	</g>
	<path class="st20" d="M269.2,143.2c0,0-0.3,21.7-13.9,17.9c-24.8-7-25.8,1.2-25.8,1.2s-5.8,19.1,20.8,20.5c0,0,15.2,2.1,21.6-9.1
		c0,0,7.7-9.9,4-31.1L269.2,143.2z"/>
	<path class="st12" d="M283.2,151.7c-0.6,4.4-3.4,7.6-6.3,7.2c-2.9-0.4-4.7-4.3-4.1-8.7c0.6-4.4,3.4-7.6,6.3-7.2
		C282,143.4,283.8,147.3,283.2,151.7z"/>
</g>
</svg>
